HIERARCHY
ROOT Hips
{
	OFFSET 0.000000 0.000000 0.000000 
	CHANNELS 6 Xposition Yposition Zposition Yrotation Zrotation Xrotation 
	JOINT Lumbar
	{
		OFFSET 0.000000 0.000000 0.000000 
		CHANNELS 3 Zrotation Xrotation Yrotation
		JOINT Neck
		{
			OFFSET 0.000000 0.445665 0.000000 
			CHANNELS 3 Zrotation Xrotation Yrotation
			End Site
			{
				OFFSET 0.000000 0.227535 0.000000 
			}
		}
		JOINT RightShoulder
		{
			OFFSET 0.019635 0.377685 0.194865 
			CHANNELS 3 Zrotation Xrotation Yrotation
			JOINT RightElbow
			{
				OFFSET 0.000000 -0.243375 0.000000 
				CHANNELS 2 Zrotation Yrotation
				JOINT RightWrist
				{
					OFFSET 0.000000 -0.264825 0.000000 
					CHANNELS 2 Zrotation Xrotation
					End Site
					{
						OFFSET 0.006600 -0.176220 0.000990 
					}
				}
			}
		}
		JOINT LeftShoulder
		{
			OFFSET 0.019635 0.377685 -0.194865 
			CHANNELS 3 Zrotation Xrotation Yrotation
			JOINT LeftElbow
			{
				OFFSET 0.000000 -0.243375 0.000000 
				CHANNELS 2 Zrotation Yrotation
				JOINT LeftWrist
				{
					OFFSET 0.000000 -0.264825 0.000000 
					CHANNELS 2 Zrotation Xrotation
					End Site
					{
						OFFSET 0.006600 -0.176220 -0.000990 
					}
				}
			}
		}
	}
	JOINT RightHip
	{
		OFFSET 0.052140 -0.069960 0.075570 
		CHANNELS 3 Zrotation Xrotation Yrotation
		JOINT RightKnee
		{
			OFFSET 0.000000 -0.402270 0.000000 
			CHANNELS 1 Zrotation
			JOINT RightAnkle
			{
				OFFSET 0.000000 -0.404085 0.000000 
				CHANNELS 3 Zrotation Xrotation Yrotation
				End Site
				{
					OFFSET 0.204105 -0.089430 0.008415 
				}
			}
		}
	}
	JOINT LeftHip
	{
		OFFSET 0.052140 -0.069960 -0.075570 
		CHANNELS 3 Zrotation Xrotation Yrotation
		JOINT LeftKnee
		{
			OFFSET 0.000000 -0.402270 0.000000 
			CHANNELS 1 Zrotation
			JOINT LeftAnkle
			{
				OFFSET 0.000000 -0.404085 0.000000 
				CHANNELS 3 Zrotation Xrotation Yrotation
				End Site
				{
					OFFSET 0.204105 -0.089430 -0.008415 
				}
			}
		}
	}
}
MOTION
Frames: 33
Frame Time: 0.02
0.00221 0.00037 -0.00073 25.92279 -19.51726 -3.45471 46.01303 -2.20163 -9.2099 -15.31799 8.86624 -1.08391 -21.47479 -5.15204 -4.6777 30.51723 97.01489 9.06403 1.79525 -23.28896 2.89737 13.39169 32.10776 -166.02514 36.13176 -12.67386 26.76296 -2.32051 -4.0384 -20.07907 -6.14027 -3.24974 -3.77998 30.51483 4.18468 0.46772 -24.30397 -6.18176 2.39063 3.39504
0.00175 0.00033 -0.00096 25.95089 -19.59381 -3.45454 45.96145 -2.17936 -9.22799 -15.20414 8.86126 -1.08514 -21.41574 -5.16724 -4.63809 30.45247 96.92642 9.03602 1.79839 -23.22043 3.29717 12.05418 32.14732 -160.07975 34.17326 -11.61791 26.8456 -2.4243 -4.47776 -20.07634 -6.12346 -3.20574 -3.75815 30.60079 4.30742 1.16297 -24.30846 -6.18775 2.32581 3.36009
0.00128 0.00029 -0.0012 25.97894 -19.67025 -3.45433 45.90996 -2.1571 -9.24601 -15.09042 8.85611 -1.08637 -21.35689 -5.18214 -4.59956 30.38801 96.84467 9.00994 1.80252 -23.15211 3.69576 10.72066 32.18681 -154.15244 32.22068 -10.56522 26.92812 -2.52789 -4.91608 -20.07361 -6.1067 -3.16185 -3.73637 30.68664 4.42976 1.85617 -24.31294 -6.19373 2.26115 3.32525
0.00082 0.00025 -0.00143 26.00695 -19.74658 -3.45415 45.85853 -2.13489 -9.26405 -14.9769 8.85113 -1.0876 -21.29802 -5.19724 -4.56026 30.32346 96.75775 8.98238 1.80585 -23.08378 4.09432 9.38725 32.22626 -148.22533 30.2682 -9.51253 27.01053 -2.63138 -5.35415 -20.07088 -6.08995 -3.11798 -3.7146 30.77236 4.55212 2.54928 -24.31742 -6.19971 2.19652 3.29041
0.00035 0.00021 -0.00166 26.03502 -19.82299 -3.45401 45.80704 -2.11269 -9.28217 -14.86331 8.84636 -1.08883 -21.23895 -5.21277 -4.51944 30.25857 96.66105 8.95199 1.80771 -23.01524 4.49409 8.0499 32.26573 -142.28022 28.30985 -8.45657 27.09299 -2.73505 -5.79313 -20.06815 -6.07315 -3.074 -3.69279 30.85813 4.67489 3.24444 -24.32192 -6.20569 2.13174 3.25547
-0.00011 0.00017 -0.0019 26.06304 -19.8995 -3.45367 45.75555 -2.09029 -9.29995 -14.74931 8.84038 -1.09006 -21.18056 -5.22637 -4.48567 30.19504 96.61032 8.93486 1.81656 -22.9474 4.8902 6.72449 32.30528 -136.39067 26.36949 -7.41081 27.17565 -2.83845 -6.22999 -20.06541 -6.05648 -3.03029 -3.6711 30.94415 4.79633 3.93349 -24.32637 -6.21166 2.06733 3.2208
-0.00058 0.00013 -0.00213 26.09108 -19.97569 -3.45374 45.70412 -2.06835 -9.31842 -14.63632 8.83693 -1.09129 -21.12084 -5.24375 -4.43799 30.12884 96.46897 8.89162 1.81161 -22.87822 5.29318 5.37663 32.34464 -130.3962 24.39521 -6.34574 27.25782 -2.94228 -6.67071 -20.06269 -6.03956 -2.9861 -3.64917 31.02955 4.92029 4.63398 -24.33091 -6.21764 2.00225 3.18564
-0.00104 9e-05 -0.00236 26.1192 -20.05221 -3.45342 45.65262 -2.04594 -9.33624 -14.52227 8.831 -1.09252 -21.0624 -5.2578 -4.40269 30.06511 96.40784 8.87146 1.81887 -22.81026 5.68989 4.04927 32.38417 -124.49778 22.45195 -5.29835 27.34046 -3.0457 -7.10774 -20.05995 -6.02288 -2.94236 -3.62747 31.11557 5.04195 5.32409 -24.33536 -6.22362 1.93777 3.15093
-0.00151 5e-05 -0.00259 26.14704 -20.12908 -3.45265 45.60108 -2.02309 -9.35331 -14.40735 8.82257 -1.09375 -21.00531 -5.26711 -4.38446 30.00435 96.45917 8.88379 1.84329 -22.74382 6.07885 2.7472 32.42392 -118.71702 20.54682 -4.27264 27.42366 -3.14872 -7.54102 -20.05719 -6.00646 -2.8991 -3.60602 31.20224 5.16073 6.00111 -24.33971 -6.22958 1.87406 3.11678
-0.00197 1e-05 -0.00284 26.17536 -20.20379 -3.45454 45.54989 -2.00316 -9.37481 -14.29873 8.83013 -1.09497 -20.93979 -5.30166 -4.27388 29.92635 95.90689 8.72208 1.77573 -22.66874 6.51217 1.30026 32.46245 -112.25985 18.42286 -3.12237 27.50357 -3.25436 -7.9982 -20.05456 -5.98843 -2.85286 -3.58303 31.28485 5.29592 6.75226 -24.34467 -6.23561 1.80605 3.07944
-0.00244 -3e-05 -0.00305 26.20336 -20.28312 -3.45078 45.49787 -1.97685 -9.38689 -14.17599 8.80295 -1.09622 -20.89249 -5.28428 -4.35429 29.88483 96.59965 8.91909 1.89783 -22.61184 6.85203 0.15868 32.50352 -107.2299 16.7604 -2.23489 27.59047 -3.35427 -8.40337 -20.05166 -5.97386 -2.81306 -3.56337 31.37618 5.39658 7.34772 -24.34832 -6.24153 1.74704 3.04878
-0.0029 -3e-05 -0.00317 26.22492 -20.37458 -3.43182 45.44467 -1.93466 -9.37326 -14.02129 8.68791 -1.0975 -20.892 -5.11267 -4.99471 29.94353 100.97412 10.17948 2.58119 -22.60625 6.93253 -0.13548 32.55367 -106.1531 16.37823 -2.07547 27.69632 -3.44007 -8.67781 -20.04804 -5.96838 -2.78978 -3.55224 31.49058 5.40081 7.50543 -24.34867 -6.24673 1.71347 3.03702
-0.00336 -3e-05 -0.00325 26.2473 -20.47071 -3.40717 45.39058 -1.88579 -9.34997 -13.85142 8.53672 -1.09882 -20.91038 -4.89143 -5.81945 30.03878 106.5464 11.78467 3.44687 -22.61908 6.92022 -0.12521 32.60714 -106.50307 16.45714 -2.17868 27.80914 -3.5198 -8.89793 -20.04415 -5.96644 -2.7732 -3.54455 31.61387 5.37064 7.50827 -24.34764 -6.25189 1.68885 3.03186
-0.00382 -3e-05 -0.00335 26.27275 -20.56514 -3.38488 45.33598 -1.83889 -9.33121 -13.68372 8.39702 -1.10015 -20.92221 -4.7001 -6.53744 30.1173 111.40166 13.18146 4.20321 -22.62202 6.95162 -0.25992 32.6562 -106.17544 16.31565 -2.15711 27.91906 -3.6013 -9.13493 -20.04036 -5.96315 -2.75431 -3.53568 31.73374 5.3574 7.58947 -24.34703 -6.25735 1.65961 3.02329
-0.00427 -3e-05 -0.00346 26.28312 -20.6581 -3.36337 45.28459 -1.79636 -9.31256 -13.53483 8.27759 -1.10137 -20.92556 -4.47617 -7.35622 30.19664 117.00187 14.80038 5.07409 -22.62969 6.97432 -0.36427 32.7127 -105.97184 16.21991 -2.15879 28.0283 -3.6871 -9.4043 -20.03664 -5.95879 -2.73228 -3.52521 31.85119 5.33883 7.63864 -24.34727 -6.26167 1.63255 3.01642
-0.00475 -3e-05 -0.00352 26.32579 -20.75486 -3.33908 45.22712 -1.7433 -9.2905 -13.34453 8.10801 -1.10282 -20.95098 -4.31018 -8.00451 30.28263 121.31736 16.03441 5.74667 -22.63404 6.99572 -0.46191 32.76055 -105.85073 16.13947 -2.17451 28.14007 -3.76232 -9.59396 -20.03275 -5.9575 -2.71842 -3.51889 31.97554 5.32293 7.71537 -24.34544 -6.2683 1.60327 3.00765
-0.00532 -1e-05 -0.00347 26.45109 -20.86365 -3.30691 45.14587 -1.66132 -9.26833 -13.03265 7.80396 -1.10494 -21.03297 -4.30127 -8.17415 30.38174 121.93847 16.15496 5.85252 -22.60884 7.0166 -0.59735 32.7382 -105.57964 15.97512 -2.16185 28.26145 -3.81135 -9.57166 -20.02807 -5.96373 -2.72518 -3.52302 32.11864 5.32572 7.92784 -24.33811 -6.28158 1.56398 2.99126
-0.00591 1e-05 -0.00336 26.60984 -20.97537 -3.27251 45.05985 -1.56921 -9.24133 -12.68214 7.45201 -1.1073 -21.13623 -4.35516 -8.16001 30.48646 121.2021 15.87086 5.74848 -22.58458 7.04452 -0.73988 32.71985 -105.34653 15.81227 -2.15465 28.38408 -3.84954 -9.4719 -20.0233 -5.97295 -2.73997 -3.53121 32.26773 5.33205 8.1695 -24.32876 -6.29712 1.52245 2.97288
-0.00647 3e-05 -0.00328 26.75768 -21.0843 -3.24007 44.98077 -1.4828 -9.21255 -12.35591 7.12463 -1.10953 -21.22991 -4.39029 -8.20406 30.585 120.98522 15.74849 5.72283 -22.56777 7.08029 -0.89132 32.72405 -105.11519 15.65775 -2.14678 28.50361 -3.89188 -9.41111 -20.01883 -5.98087 -2.75128 -3.53764 32.41327 5.33467 8.38342 -24.32043 -6.31144 1.48305 2.95592
-0.0071 6e-05 -0.0032 26.88826 -21.20049 -3.20312 44.88161 -1.39178 -9.20199 -11.99886 6.78244 -1.11183 -21.3249 -4.38266 -8.35674 30.69642 121.20307 15.72756 5.77215 -22.51026 7.06023 -0.98148 32.60781 -104.85608 15.48266 -2.14059 28.63509 -3.93782 -9.33289 -20.01324 -5.98867 -2.76218 -3.54387 32.56388 5.34425 8.65255 -24.31165 -6.32658 1.43926 2.93702
-0.0076 8e-05 -0.0031 27.06166 -21.30099 -3.17549 44.82303 -1.30773 -9.15025 -11.69943 6.46232 -1.11406 -21.4207 -4.47931 -8.2431 30.78653 120.20057 15.40002 5.61707 -22.54767 7.1668 -1.2042 32.76552 -104.64181 15.34306 -2.12858 28.74059 -3.97306 -9.27283 -20.00996 -5.99737 -2.77569 -3.5514 32.70364 5.34149 8.81626 -24.30328 -6.34051 1.40396 2.92159
-0.0078 0.00011 -0.00298 27.35402 -21.36683 -3.17075 44.8773 -1.24794 -9.00477 -11.5478 6.19667 -1.11594 -21.52415 -4.85199 -7.38542 30.77991 115.95237 14.27558 4.9139 -22.76243 7.55971 -1.79624 33.49101 -104.56273 15.31244 -2.09943 28.78398 -3.98718 -9.28542 -20.01305 -6.00813 -2.79506 -3.56187 32.82436 5.29663 8.67711 -24.29723 -6.35102 1.39257 2.91612
-0.00786 0.00015 -0.00284 27.68645 -21.41427 -3.1761 44.97169 -1.195 -8.8146 -11.45929 5.95836 -1.11782 -21.62543 -5.32719 -6.27443 30.76068 110.55385 12.86259 4.0181 -23.09014 8.09287 -2.52001 34.52835 -104.51534 15.31249 -2.06272 28.79857 -3.98967 -9.31815 -20.01844 -6.01969 -2.81667 -3.57344 32.93081 5.24088 8.43266 -24.29155 -6.36018 1.38974 2.91417
-0.00796 0.00018 -0.00269 27.99495 -21.46493 -3.17913 45.04918 -1.13739 -8.63256 -11.35576 5.71976 -1.11969 -21.7209 -5.75324 -5.31456 30.76792 105.81466 11.61405 3.23226 -23.41923 8.60131 -3.18433 35.5444 -104.43399 15.28942 -2.02815 28.82067 -3.99391 -9.34015 -20.02277 -6.03061 -2.83682 -3.58426 33.03661 5.1948 8.23999 -24.28522 -6.36959 1.38308 2.91068
-0.00817 0.00021 -0.00263 28.32957 -21.54047 -3.17261 45.12482 -1.0863 -8.50158 -11.19383 5.42863 -1.12137 -21.8466 -6.19164 -4.19935 30.67794 100.45984 10.21675 2.34366 -23.51859 8.94077 -3.8553 36.04697 -104.44176 15.30772 -1.99996 28.86927 -4.01335 -9.36783 -20.02721 -6.04257 -2.85906 -3.59624 33.17598 5.1283 8.03097 -24.28079 -6.38044 1.37629 2.90696
-0.00813 0.00025 -0.00238 28.61786 -21.55594 -3.18829 45.20896 -1.02301 -8.25393 -11.16822 5.25351 -1.12373 -21.90757 -6.62859 -3.34621 30.79976 96.12226 9.05872 1.62718 -24.13233 9.671 -4.53316 37.69951 -104.26534 15.24421 -1.95588 28.85217 -3.99768 -9.38729 -20.0319 -6.0528 -2.87744 -3.60606 33.23793 5.10246 7.83152 -24.27262 -6.38817 1.3716 2.90448
-0.00741 0.00036 -0.00162 28.777 -21.44445 -3.26378 45.35064 -0.92781 -7.69375 -11.51043 5.3969 -1.12538 -21.79707 -7.02963 -3.31189 31.40634 94.9625 8.69809 1.42378 -26.05632 11.39628 -5.28808 42.39364 -103.62944 14.98979 -1.87596 28.69371 -3.89568 -9.39955 -20.03755 -6.05543 -2.88399 -3.60921 33.12592 5.18492 7.67642 -24.2531 -6.38547 1.37253 2.9055
-0.00646 0.00049 -0.00065 28.88655 -21.26785 -3.36102 45.49239 -0.81961 -7.01846 -11.98629 5.65531 -1.12812 -21.61926 -7.42633 -3.54529 32.24747 94.85776 8.57945 1.40253 -28.5057 13.51744 -6.02855 48.24247 -102.80521 14.65708 -1.77957 28.46524 -3.75766 -9.40035 -20.04326 -6.0567 -2.88662 -3.6102 32.93108 5.30968 7.53566 -24.22999 -6.38004 1.37498 2.9075
-0.00564 0.00062 0.00025 29.01269 -21.09704 -3.44778 45.60398 -0.71501 -6.39607 -12.39704 5.85829 -1.13212 -21.46881 -7.82956 -3.63461 33.04664 94.21786 8.30669 1.30566 -30.77343 15.49222 -6.71636 53.60367 -102.01794 14.31559 -1.68604 28.24556 -3.63071 -9.39223 -20.04839 -6.0604 -2.89147 -3.61251 32.74855 5.4197 7.39365 -24.20917 -6.37727 1.37544 2.90842
-0.00471 0.00073 0.00104 29.16445 -21.02136 -3.53776 45.83974 -0.61994 -5.76752 -12.82956 6.07604 -1.129 -21.33548 -8.21837 -3.80744 33.56542 93.76716 8.20349 1.17376 -32.81946 17.33774 -7.65865 58.82962 -101.39969 14.10861 -1.60989 28.11688 -3.52452 -9.44064 -20.05585 -6.05676 -2.89472 -3.61355 32.66678 5.51135 7.22677 -24.18559 -6.36856 1.38152 2.91209
-0.00396 0.00087 0.0021 29.25169 -20.73822 -3.62563 45.8219 -0.50239 -5.12771 -13.24622 6.28933 -1.1406 -21.14609 -8.63335 -3.87593 34.73296 93.19431 7.81654 1.15805 -35.43108 19.53537 -8.06596 64.5941 -100.43121 13.67003 -1.49605 27.78897 -3.36822 -9.37307 -20.05854 -6.06771 -2.90011 -3.61654 32.3628 5.6503 7.11519 -24.16688 -6.37145 1.37633 2.91031
-0.00371 0.00107 0.00385 29.16315 -19.84707 -3.7059 45.05526 -0.32128 -4.46257 -13.59792 6.46803 -1.1956 -20.85446 -9.13305 -3.56808 37.55898 91.98039 6.51765 1.44139 -39.6387 22.7002 -7.01659 71.67333 -98.11257 11.98227 -1.26073 26.87129 -3.06933 -8.94699 -20.04722 -6.12254 -2.91451 -3.62681 31.40364 5.91938 7.1641 -24.16292 -6.40827 1.33792 2.89234
-0.00365 0.00128 0.00588 29.01318 -18.75873 -3.78257 44.04177 -0.11879 -3.7946 -13.92626 6.63712 -1.26481 -20.50084 -9.65599 -3.15083 41.04366 90.62146 4.93837 1.83167 -44.36359 26.19637 -5.43948 79.23022 -95.50936 10.14639 -0.99108 25.76595 -2.72376 -8.41193 -20.03126 -6.1915 -2.93083 -3.63888 30.23505 6.23275 7.2664 -24.16394 -6.45664 1.2884 2.869
